<svg width="16" height="16" viewBox="0 0 16 16" fill="none" xmlns="http://www.w3.org/2000/svg">
<g clip-path="url(#clip0)">
<path d="M8 1.00195C4.13441 1.00195 1 4.13575 1 8.00165C1 11.8675 4.1341 15.0013 8 15.0013C11.8662 15.0013 15 11.8675 15 8.00165C15 4.13575 11.8662 1.00195 8 1.00195ZM8 3.09494C9.2791 3.09494 10.3156 4.13175 10.3156 5.41024C10.3156 6.68903 9.2791 7.72553 8 7.72553C6.72151 7.72553 5.68501 6.68903 5.68501 5.41024C5.68501 4.13175 6.72151 3.09494 8 3.09494ZM7.99846 13.1712C6.72274 13.1712 5.55434 12.7066 4.65312 11.9376C4.43358 11.7504 4.3069 11.4758 4.3069 11.1877C4.3069 9.89109 5.35632 8.85335 6.65325 8.85335H9.34736C10.6446 8.85335 11.69 9.89109 11.69 11.1877C11.69 11.4761 11.564 11.7501 11.3441 11.9373C10.4432 12.7066 9.27449 13.1712 7.99846 13.1712Z" fill="#FEFEFE"/>
</g>
<defs>
<clipPath id="clip0">
<rect width="14" height="14" fill="white" transform="translate(1 1)"/>
</clipPath>
</defs>
</svg>
