<svg width="78" height="78" viewBox="0 0 78 78" fill="none" xmlns="http://www.w3.org/2000/svg">
<circle cx="39" cy="39" r="38" stroke="white" stroke-linecap="round" stroke-linejoin="round" stroke-dasharray="4 12"/>
<path fill-rule="evenodd" clip-rule="evenodd" d="M39 27C37.6745 27 36.6 28.0745 36.6 29.4V36.6H29.4C28.0745 36.6 27 37.6745 27 39C27 40.3255 28.0745 41.4 29.4 41.4H36.6V48.6C36.6 49.9255 37.6745 51 39 51C40.3255 51 41.4 49.9255 41.4 48.6V41.4H48.6C49.9255 41.4 51 40.3255 51 39C51 37.6745 49.9255 36.6 48.6 36.6H41.4V29.4C41.4 28.0745 40.3255 27 39 27Z" fill="white"/>
</svg>
