<svg width="16" height="16" viewBox="0 0 16 16" fill="none" xmlns="http://www.w3.org/2000/svg">
<g clip-path="url(#clip0)">
<path d="M9.53178 7.79154L7.86133 6.12109L6.19088 7.79154L7.86133 9.46199L9.53178 7.79154Z" fill="#ECBA1E"/>
<path d="M4.05912 7.79154L2.38867 6.12109L0.718224 7.79154L2.38867 9.46199L4.05912 7.79154Z" fill="#ECBA1E"/>
<path d="M14.9693 7.79154L13.2988 6.12109L11.6284 7.79154L13.2988 9.46199L14.9693 7.79154Z" fill="#ECBA1E"/>
<path d="M12.2359 5.0571L7.84434 0.666016L6.17396 2.3364L3.48828 5.02208L5.15866 6.69246L7.84434 4.00678L10.5655 6.72749L12.2359 5.0571Z" fill="#ECBA1E"/>
<path d="M12.2359 10.6176L7.84434 15.0087L6.17396 13.3384L3.48828 10.6527L5.15866 8.98229L7.84434 11.668L10.5655 8.94727L12.2359 10.6176Z" fill="#ECBA1E"/>
</g>
<defs>
<clipPath id="clip0">
<rect width="14.2501" height="14.3433" fill="white" transform="translate(0.71875 0.666016)"/>
</clipPath>
</defs>
</svg>
