<svg width="16" height="17" viewBox="0 0 16 17" fill="none" xmlns="http://www.w3.org/2000/svg">
<g clip-path="url(#clip0)">
<path d="M9.89511 8.00058L8.01953 6.125L6.14395 8.00058L8.01953 9.87615L9.89511 8.00058Z" fill="white"/>
<path d="M3.75058 8.00058L1.875 6.125L-0.000578922 8.00058L1.875 9.87616L3.75058 8.00058Z" fill="white"/>
<path d="M16.0006 8.00058L14.125 6.125L12.2494 8.00058L14.125 9.87616L16.0006 8.00058Z" fill="white"/>
<path d="M12.9312 4.93031L8.00036 0L6.12485 1.87551L3.10938 4.89099L4.98488 6.76649L8.00036 3.75101L11.0557 6.80582L12.9312 4.93031Z" fill="white"/>
<path d="M12.9312 11.1743L8.00036 16.1046L6.12485 14.2291L3.10938 11.2137L4.98488 9.33816L8.00036 12.3536L11.0557 9.29883L12.9312 11.1743Z" fill="white"/>
</g>
<defs>
<clipPath id="clip0">
<rect width="16" height="16.1047" fill="white"/>
</clipPath>
</defs>
</svg>
