<svg width="20" height="20" viewBox="0 0 20 20" fill="none" xmlns="http://www.w3.org/2000/svg">
<path d="M16 2.5L12 6.50003H15V13.5C15 14.605 14.105 15.5 13 15.5C11.895 15.5 11 14.605 11 13.5V6.50003C11 4.29503 9.20498 2.50005 6.99998 2.50005C4.79498 2.50005 3 4.29503 3 6.50003V13.5H0L3.99998 17.5L8.00001 13.5H5.00001V6.50003C5.00001 5.39505 5.895 4.50001 7.00003 4.50001C8.10506 4.50001 8.99999 5.395 8.99999 6.50003V13.5C8.99999 15.705 10.795 17.5 13 17.5C15.205 17.5 17 15.705 17 13.5V6.50003H20L16 2.5Z" fill="white"/>
</svg>
