<svg width="16" height="16" viewBox="0 0 16 16" fill="none" xmlns="http://www.w3.org/2000/svg">
<g clip-path="url(#clip0)">
<path d="M14.9903 7.07931C14.9903 6.80487 14.9806 6.52719 14.9387 6.25597C14.8902 5.93632 14.7643 5.65865 14.4899 5.45846C14.1024 5.17756 13.7214 4.8902 13.3404 4.60284C11.8778 3.50182 10.4022 2.40726 8.93958 1.30302C8.71033 1.1319 8.4714 1.01566 8.18081 1.00274C7.76107 0.983371 7.3607 1.01243 7.02491 1.31271C6.86993 1.45154 6.69234 1.56778 6.52445 1.69047C4.83256 2.9497 3.14714 4.21538 1.45849 5.47461C1.23247 5.6425 1.10978 5.87498 1.06458 6.14942C1.03229 6.31732 1.03552 6.48522 1 6.64988C1 7.05671 1 7.46677 1 7.87359C1.02906 7.92848 1.01614 7.98983 1.01614 8.04795C1.01614 8.91326 1.01614 9.77857 1.01614 10.6471C1.01614 11.5544 1.01614 12.4617 1.01614 13.369C1.01614 13.4271 1.03229 13.4852 1 13.5433C1 13.553 1 13.5659 1 13.5756C1.05489 13.6919 1.04843 13.821 1.12592 13.934C1.34225 14.2375 1.63607 14.3828 1.99769 14.4119C3.60886 14.4119 5.21679 14.4119 6.82795 14.4119C6.90867 14.3667 6.9797 14.315 7.03136 14.2343C7.22509 13.9276 7.36716 13.6015 7.48985 13.2624C7.81596 12.3551 7.7417 11.4123 7.73847 10.4728C7.73847 10.3178 7.67389 10.2726 7.51891 10.2952C7.3607 10.3178 7.20249 10.3598 7.04428 10.3856C6.55673 10.4598 6.07887 10.4276 5.63007 10.2145C4.62592 9.7366 4.14483 8.7163 4.13838 7.67987C4.13838 7.54749 4.19649 7.47 4.32887 7.44417C4.6905 7.36667 5.05535 7.35053 5.41697 7.39896C6.39852 7.53457 7.02168 8.1319 7.41882 9.00044C7.54797 9.28457 7.63192 9.58485 7.71587 9.88513C7.77721 10.1047 7.93865 10.1434 8.09686 9.98522C8.15175 9.93033 8.18404 9.86575 8.20341 9.79149C8.24862 9.59776 8.31319 9.41049 8.38422 9.22322C8.60701 8.61944 8.94926 8.10284 9.49815 7.74767C10.1019 7.36022 10.7671 7.31824 11.4516 7.42479C11.7292 7.46677 11.7583 7.51197 11.7422 7.7961C11.7389 7.83485 11.7422 7.87036 11.7389 7.90911C11.6711 8.71308 11.3838 9.40726 10.738 9.92064C10.2375 10.3178 9.66928 10.4954 9.02352 10.4146C8.80397 10.3888 8.59087 10.3372 8.37131 10.3113C8.22924 10.2952 8.18404 10.3307 8.1679 10.4695C8.16144 10.5244 8.16144 10.5761 8.16144 10.631C8.16144 11.2057 8.19696 11.7772 8.26476 12.3455C8.34225 12.9751 8.46817 13.595 8.77814 14.1633C8.83625 14.2698 8.8976 14.3667 9.01384 14.4151C10.6573 14.4151 12.2975 14.4151 13.941 14.4151C13.9571 14.399 13.9797 14.399 14.0023 14.399C14.5125 14.4086 15.0032 13.9469 14.9968 13.3593C14.9806 11.2638 14.9903 9.17156 14.9903 7.07931ZM8.43589 8.2675C8.31642 8.45155 8.1905 8.63236 8.0678 8.81317C7.96448 8.96492 7.92251 8.96815 7.82242 8.80994C7.63192 8.50321 7.48985 8.17387 7.4059 7.82516C7.3607 7.63143 7.3381 7.43448 7.3381 7.23429C7.3607 6.66926 7.47371 6.14297 7.91605 5.73614C8.02906 5.63282 8.09363 5.63928 8.17113 5.76197C8.2131 5.82977 8.27122 5.88789 8.31965 5.95247C8.86208 6.63051 8.90729 7.53134 8.43589 8.2675Z" fill="#FEFEFE"/>
</g>
<defs>
<clipPath id="clip0">
<rect width="14" height="13.4124" fill="white" transform="translate(1 1)"/>
</clipPath>
</defs>
</svg>
