<svg width="20" height="20" viewBox="0 0 20 20" fill="none" xmlns="http://www.w3.org/2000/svg">
<g clip-path="url(#clip0)">
<path d="M18.6989 8.52057C18.6082 8.30162 18.3945 8.15885 18.1576 8.15885H11.9369L13.0882 0.67506C13.1268 0.42463 13 0.177833 12.774 0.0633017C12.5479 -0.0512686 12.2739 -0.00747956 12.0948 0.171661L1.42554 10.8409C1.25796 11.0085 1.20784 11.2605 1.29851 11.4794C1.38921 11.6984 1.60288 11.8412 1.83984 11.8412H8.06046L6.90913 19.3249C6.87062 19.5754 6.99741 19.8222 7.22339 19.9367C7.44945 20.0513 7.72343 20.0075 7.90257 19.8283L18.5718 9.15912C18.7394 8.99151 18.7896 8.73951 18.6989 8.52057Z" fill="#467FFF"/>
</g>
<defs>
<clipPath id="clip0">
<rect width="20" height="20" fill="white"/>
</clipPath>
</defs>
</svg>
