<svg width="16" height="16" viewBox="0 0 16 16" fill="none" xmlns="http://www.w3.org/2000/svg">
<g clip-path="url(#clip0)">
<path d="M7.55078 1C6.05781 1 4.84375 2.21406 4.84375 3.70703V3.76172H5.66406V3.70703C5.66406 2.66797 6.50898 1.82031 7.55078 1.82031C8.59258 1.82031 9.4375 2.66523 9.4375 3.70703V3.76172H10.2578V3.70703C10.2551 2.21406 9.04375 1 7.55078 1Z" fill="white"/>
<path d="M13.0937 12.5445L12.4676 4.6668C12.4293 4.1582 12 3.76172 11.4914 3.76172H11.0648H10.2582H9.43788H5.66444H4.84413H3.94999H3.61092C3.10233 3.76172 2.67303 4.1582 2.63475 4.6668L2.00585 12.5473C1.95663 13.1789 2.17538 13.8078 2.60741 14.2699C3.03671 14.7348 3.64647 15 4.28085 15H10.8215C11.4531 15 12.0629 14.7348 12.4949 14.2699C12.9242 13.8051 13.143 13.1762 13.0937 12.5445ZM7.23124 6.96641C7.32421 6.80508 7.55116 6.79688 7.6578 6.95C7.95858 7.38477 8.38514 8.2707 7.73983 9.18672C7.63866 9.33164 7.42264 9.32344 7.32694 9.17578C7.0535 8.76836 6.67343 7.92617 7.23124 6.96641ZM10.5726 8.35C10.4742 9.17031 9.99569 11.2566 7.63593 11.5027C7.63319 11.5027 7.63046 11.5027 7.62772 11.5027C7.58397 11.5219 7.53475 11.5301 7.4828 11.5191C6.73085 11.3852 4.81405 10.8164 4.45038 8.48398C4.42303 8.31719 4.57069 8.17227 4.73749 8.19961C5.43202 8.30898 7.03163 8.73008 7.58944 10.3133C7.9121 9.45195 8.64218 8.39102 10.2773 8.07383C10.4441 8.04102 10.5918 8.18047 10.5726 8.35Z" fill="white"/>
</g>
<defs>
<clipPath id="clip0">
<rect width="11.1016" height="14" fill="white" transform="translate(2 1)"/>
</clipPath>
</defs>
</svg>
