<svg width="16" height="16" viewBox="0 0 16 16" fill="none" xmlns="http://www.w3.org/2000/svg">
<g clip-path="url(#clip0)">
<path d="M13.1036 14.5241C9.71277 14.5241 6.3252 14.5241 2.9344 14.5241C2.91822 14.5144 2.90204 14.495 2.88263 14.4918C2.26141 14.3365 1.94434 13.9353 1.94434 13.2979C1.94434 11.609 1.94434 9.92328 1.94434 8.23435C1.94434 8.17288 1.94434 8.10817 1.94434 8.04346C6.00489 8.04346 10.046 8.04346 14.0839 8.04346C14.0904 8.06934 14.0936 8.07905 14.0936 8.08875C14.0936 9.8618 14.1001 11.6349 14.0904 13.4111C14.0872 13.9515 13.7183 14.3656 13.1877 14.4853C13.1586 14.4918 13.1327 14.5112 13.1036 14.5241Z" fill="white"/>
<path d="M0.999329 5.4329C1.01227 5.40378 1.03168 5.3779 1.03816 5.34878C1.1611 4.80522 1.58819 4.45255 2.14146 4.44284C2.46501 4.43961 2.78532 4.44284 3.10887 4.44284C6.65822 4.44284 10.2076 4.44284 13.7569 4.44284C14.5367 4.44284 14.9961 4.90552 14.9961 5.69174C14.9961 6.15118 14.9961 6.60739 14.9961 7.06683C14.9961 7.34184 14.8764 7.46479 14.6046 7.46479C10.2043 7.46479 5.80728 7.46479 1.407 7.46803C1.20964 7.46803 1.08669 7.38067 0.996094 7.21566C0.999329 6.62033 0.999329 6.025 0.999329 5.4329Z" fill="white"/>
<path d="M4.64659 1C4.77601 1.03235 4.90867 1.05824 5.03485 1.09706C5.48135 1.23296 5.85343 1.49827 6.19316 1.80887C6.84349 2.40097 7.35794 3.10307 7.81091 3.85371C7.82061 3.86989 7.82709 3.89254 7.84326 3.92813C7.79797 3.93136 7.76237 3.9346 7.72678 3.9346C6.55553 3.9346 5.38105 3.93783 4.2098 3.9346C3.39445 3.93136 2.7603 3.36838 2.69882 2.55627C2.64382 1.87682 3.10002 1.25884 3.77624 1.07118C3.8636 1.04853 3.95096 1.02265 4.03508 1C4.23892 1 4.44275 1 4.64659 1Z" fill="white"/>
<path d="M11.9746 1C12.0554 1.02265 12.1363 1.04853 12.2172 1.06795C12.8384 1.22325 13.3399 1.79593 13.314 2.52392C13.2882 3.23896 12.7543 3.80841 12.0522 3.90548C11.9357 3.92165 11.816 3.93136 11.6995 3.93136C10.5865 3.9346 9.47352 3.93136 8.36052 3.93136C8.30228 3.93136 8.24404 3.93136 8.18256 3.93136C8.18256 3.90871 8.17609 3.8893 8.18256 3.87959C8.66789 3.06425 9.22116 2.30714 9.94914 1.68916C10.3439 1.3559 10.7742 1.08736 11.3048 1.02588C11.3242 1.02265 11.3436 1.00971 11.363 1C11.5669 1 11.7707 1 11.9746 1Z" fill="white"/>
</g>
<defs>
<clipPath id="clip0">
<rect width="14" height="13.5244" fill="white" transform="translate(1 1)"/>
</clipPath>
</defs>
</svg>
