<svg width="72" height="20" viewBox="0 0 72 20" fill="none" xmlns="http://www.w3.org/2000/svg">
<rect width="72" height="20" rx="2" fill="#649CDE"/>
<path d="M20.46 13.704H23.304V15H18.768V6.528H20.46V13.704ZM24.119 6.444C24.119 6.172 24.215 5.952 24.407 5.784C24.599 5.608 24.851 5.52 25.163 5.52C25.475 5.52 25.727 5.608 25.919 5.784C26.111 5.952 26.207 6.172 26.207 6.444C26.207 6.708 26.111 6.928 25.919 7.104C25.727 7.272 25.475 7.356 25.163 7.356C24.851 7.356 24.599 7.272 24.407 7.104C24.215 6.928 24.119 6.708 24.119 6.444ZM26.003 8.352V15H24.311V8.352H26.003ZM30.1376 8.268C30.6976 8.268 31.1776 8.4 31.5776 8.664C31.9776 8.928 32.2616 9.284 32.4296 9.732V8.352H34.1096V15.024C34.1096 15.64 33.9856 16.192 33.7376 16.68C33.4976 17.176 33.1336 17.564 32.6456 17.844C32.1656 18.124 31.5816 18.264 30.8936 18.264C29.9336 18.264 29.1576 18.036 28.5656 17.58C27.9736 17.124 27.6136 16.504 27.4856 15.72H29.1536C29.2496 16.056 29.4336 16.316 29.7056 16.5C29.9856 16.692 30.3416 16.788 30.7736 16.788C31.2696 16.788 31.6696 16.64 31.9736 16.344C32.2776 16.056 32.4296 15.616 32.4296 15.024V13.608C32.2616 14.056 31.9776 14.416 31.5776 14.688C31.1776 14.952 30.6976 15.084 30.1376 15.084C29.5776 15.084 29.0736 14.948 28.6256 14.676C28.1776 14.404 27.8256 14.012 27.5696 13.5C27.3216 12.98 27.1976 12.372 27.1976 11.676C27.1976 10.98 27.3216 10.376 27.5696 9.864C27.8256 9.344 28.1776 8.948 28.6256 8.676C29.0736 8.404 29.5776 8.268 30.1376 8.268ZM30.6656 9.744C30.1376 9.744 29.7136 9.916 29.3936 10.26C29.0736 10.604 28.9136 11.076 28.9136 11.676C28.9136 12.276 29.0736 12.748 29.3936 13.092C29.7136 13.428 30.1376 13.596 30.6656 13.596C31.1776 13.596 31.5976 13.424 31.9256 13.08C32.2616 12.728 32.4296 12.26 32.4296 11.676C32.4296 11.084 32.2616 10.616 31.9256 10.272C31.5976 9.92 31.1776 9.744 30.6656 9.744ZM39.603 8.256C40.371 8.256 40.983 8.508 41.439 9.012C41.895 9.516 42.123 10.224 42.123 11.136V15H40.443V11.328C40.443 10.8 40.307 10.392 40.035 10.104C39.763 9.808 39.391 9.66 38.919 9.66C38.439 9.66 38.055 9.816 37.767 10.128C37.479 10.44 37.335 10.888 37.335 11.472V15H35.643V6.12H37.335V9.684C37.511 9.236 37.799 8.888 38.199 8.64C38.607 8.384 39.075 8.256 39.603 8.256ZM47.1638 13.548V15H46.2758C45.5318 15 44.9598 14.82 44.5598 14.46C44.1678 14.1 43.9718 13.5 43.9718 12.66V9.78H43.0478V8.352H43.9718V6.708H45.6638V8.352H47.1518V9.78H45.6638V12.684C45.6638 13.004 45.7278 13.228 45.8558 13.356C45.9838 13.484 46.1998 13.548 46.5038 13.548H47.1638Z" fill="white"/>
<g clip-path="url(#clip0)">
<g clip-path="url(#clip1)">
<path d="M-0.257515 15.4209C-0.257515 15.4209 -4.17756 8.81024 -0.257515 5.3586C3.66253 1.90512 5.8086 1.41307 5.71687 -5C5.71687 -5 9.82383 0.524097 6.27762 5.21043C6.27762 5.21043 9.26481 3.58247 10.2911 3.78002C10.2911 3.78002 8.42369 8.51575 4.69056 9.00962C4.69056 9.00962 7.12566 9.15779 7.19316 10.6101C7.19316 10.6101 6.60126 11.9326 3.75771 11.0821C3.75771 11.0821 8.14505 13.0557 2.73141 16.8037C2.80929 16.7507 2.87679 16.5842 2.92698 16.5056C3.08274 16.2568 3.22985 16.0007 3.36658 15.7391C3.67637 15.1392 4.00694 14.4295 3.98098 13.7271C3.94982 12.9058 3.1987 12.6131 2.53238 12.5893C1.37973 12.5454 0.351692 13.1344 -0.0411775 14.3087C-0.100021 14.4862 -0.14675 14.6691 -0.181364 14.8538C-0.205594 14.9599 -0.312898 15.3294 -0.257515 15.4209Z" fill="#B2ECF9"/>
<path d="M0.333008 16.4744C0.423004 16.5366 0.729339 16.4799 0.827989 16.4781C1.26932 16.4707 1.71238 16.4378 2.15198 16.3848C4.16132 16.1415 6.20874 15.4519 7.78714 14.069C8.7148 13.2569 9.72034 11.7954 9.15613 10.4692C8.83076 9.70282 7.99656 9.50709 7.27139 9.50344C7.71619 9.50527 8.17482 9.39369 8.62307 9.38454C9.50746 9.36625 10.4299 9.4449 11.2572 9.79245C11.9408 10.0796 12.5743 10.6028 12.8218 11.36C13.27 12.7356 12.8235 14.4422 12.0326 15.5854C11.4389 16.4451 10.5788 17.0433 9.64419 17.4128C7.66253 18.1975 5.38147 18.1079 3.33924 17.6506C2.3112 17.4201 1.21913 17.0963 0.333008 16.4744Z" fill="#B2ECF9"/>
</g>
</g>
<defs>
<clipPath id="clip0">
<rect width="18" height="20" fill="white"/>
</clipPath>
<clipPath id="clip1">
<rect width="15" height="23" fill="white" transform="translate(-2 -5)"/>
</clipPath>
</defs>
</svg>
