<svg width="16" height="16" viewBox="0 0 16 16" fill="none" xmlns="http://www.w3.org/2000/svg">
<path d="M14.8155 0H5.97122C5.34089 0 4.82812 0.5128 4.82812 1.1431V3.82602H5.8716V1.1431C5.8716 1.08817 5.9163 1.04348 5.97122 1.04348H14.8155C14.8704 1.04348 14.9151 1.08817 14.9151 1.1431V9.98734C14.9151 10.0423 14.8704 10.087 14.8155 10.087H12.2162V11.1305H14.8155C15.4458 11.1305 15.9586 10.6177 15.9586 9.98734V1.1431C15.9585 0.5128 15.4458 0 14.8155 0Z" fill="white"/>
<path d="M10.0293 4.86914H1.18512C0.554792 4.86914 0.0419922 5.38194 0.0419922 6.01227V14.8565C0.042027 15.4868 0.554792 15.9996 1.18512 15.9996H10.0294C10.6597 15.9996 11.1725 15.4868 11.1725 14.8565V6.01227C11.1725 5.38194 10.6597 4.86914 10.0293 4.86914ZM10.0294 14.9562H1.18512C1.13017 14.9562 1.08547 14.9115 1.08547 14.8565V6.01227C1.08547 5.95731 1.13017 5.91262 1.18512 5.91262H10.0294C10.0843 5.91262 10.129 5.95731 10.129 6.01227V14.8565H10.129C10.129 14.9115 10.0843 14.9562 10.0294 14.9562Z" fill="white"/>
</svg>
